<?xml version="1.0" encoding="UTF-8" standalone="no"?>
<!-- Created with Inkscape (http://www.inkscape.org/) -->

<svg
   version="1.1"
   id="svg2"
   xml:space="preserve"
   width="780"
   height="585"
   viewBox="0 0 780 585"
   sodipodi:docname="PlutoTV_CMYK_logo+final-color.ai"
   inkscape:version="1.1.2 (0a00cf5339, 2022-02-04)"
   xmlns:inkscape="http://www.inkscape.org/namespaces/inkscape"
   xmlns:sodipodi="http://sodipodi.sourceforge.net/DTD/sodipodi-0.dtd"
   xmlns="http://www.w3.org/2000/svg"
   xmlns:svg="http://www.w3.org/2000/svg"><defs
     id="defs6"><clipPath
       clipPathUnits="userSpaceOnUse"
       id="clipPath18"><path
         d="M 0,612 H 792 V 0 H 0 Z"
         id="path16" /></clipPath></defs><sodipodi:namedview
     id="namedview4"
     pagecolor="#505050"
     bordercolor="#eeeeee"
     borderopacity="1"
     inkscape:pageshadow="0"
     inkscape:pageopacity="0"
     inkscape:pagecheckerboard="0"
     showgrid="false"
     inkscape:zoom="1.0698529"
     inkscape:cx="528.10997"
     inkscape:cy="408"
     inkscape:window-width="2490"
     inkscape:window-height="1376"
     inkscape:window-x="70"
     inkscape:window-y="27"
     inkscape:window-maximized="1"
     inkscape:current-layer="g8" /><g
     id="g8"
     inkscape:groupmode="layer"
     inkscape:label="PlutoTV_CMYK_logo+final-color"
     transform="matrix(1.3333333,0,0,-1.3333333,0,816)"><g
       id="g12"
       transform="translate(-165.90151,80.885895)"><g
         id="g14"
         clip-path="url(#clipPath18)"><g
           id="g20"
           transform="translate(725.2032,399.3766)"><path
             d="M 0,0 -18.86,-49.263 -37.543,-0.465 H -75.671 V 19.433 L -95.042,11.607 V -0.465 h -13.361 v -16.984 h 13.361 v -31.428 c 0,-16.887 9.564,-26.993 27.426,-26.993 h 13.167 v 17.757 h -10.71 c -7.38,0 -10.512,4.03 -10.512,10.521 v 30.143 h 24.223 l 24.154,-58.421 h 16.868 L 20.943,0 Z m -171.383,-87.187 c 0,-12.565 10.186,-22.75 22.751,-22.75 12.564,0 22.75,10.185 22.75,22.75 0,12.565 -10.186,22.75 -22.75,22.75 -12.565,0 -22.751,-10.185 -22.751,-22.75 m -33.575,47.659 h -23.077 v 25.013 l -27.774,-11.221 V -39.528 H -272.9 V -65.05 h 17.091 v -32.925 c 0,-11.398 3.374,-20.783 9.757,-27.142 6.39,-6.365 15.831,-9.729 27.301,-9.729 h 13.793 v 25.522 h -9.477 c -9.406,0 -13.6,4.194 -13.6,13.6 v 30.674 h 23.077 z m -78.82,-0.015 -27.586,-11.146 v -41.802 c 0,-9.635 -7.811,-17.446 -17.446,-17.446 -9.635,0 -17.446,7.811 -17.446,17.446 v 51.913 l -27.586,-11.146 V -91.69 c 0,-24.871 20.161,-45.033 45.032,-45.033 24.871,0 45.032,20.162 45.032,45.033 z m -102.009,25.027 -27.774,-11.222 v -109.108 h 27.774 z m -38.707,-72.767 c 0,27.826 -20.231,49.622 -46.058,49.622 -11.605,0 -21.447,-3.922 -28.768,-11.403 l -3.837,9.28 -22.457,-9.073 v -111.002 h 27.769 v 32.78 c 7.224,-6.518 16.579,-9.638 27.293,-9.638 12.689,0 24.4,5.155 32.976,14.517 8.436,9.211 13.082,21.611 13.082,34.917 m 293.811,-46.072 c -20.981,-96.082 -106.538,-168.023 -208.912,-168.023 -118.107,0 -213.851,95.744 -213.851,213.851 0,118.106 95.744,213.851 213.851,213.851 102.11,0 187.491,-71.57 208.75,-167.279 -5.522,2.126 -11.516,3.303 -17.787,3.303 -27.358,0 -49.536,-22.177 -49.536,-49.535 0,-27.358 22.178,-49.536 49.536,-49.536 6.333,0 12.382,1.202 17.949,3.368 m -321.002,46.168 c 0,-12.565 -10.348,-22.75 -23.114,-22.75 -12.765,0 -23.113,10.185 -23.113,22.75 0,12.565 10.348,22.75 23.113,22.75 12.766,0 23.114,-10.185 23.114,-22.75"
             style="fill:#fff203;fill-opacity:1;fill-rule:nonzero;stroke:none"
             id="path22" /></g></g></g></g></svg>
